PathFileType	4	(X/Y/Z)	 2.6Hz3min.trc
DataRate	CameraRate	NumFrames	NumMarkers	Units	OrigDataRate	OrigDataStartFrame	OrigNumFrames
200	200	10	35	m	200	876	1000
Frame#	Time	C7			LSH			RSH			MAN			RASI			LASI			HIPR			HIPL			RPSI			LPSI			COX			RTHI1			RTHI2			RTHI3			RTHI4			RSHA1			RSHA2			RSHA3			RSHA4			RHEEL			RMET5			RMET1			RTOE			LTHI1			LTHI2			LTHI3			LTHI4			LSHA1			LSHA2			LSHA3			LSHA4			LHEEL			LMET5			LMET1			LTOE			
		X1	Y1	Z1	X2	Y2	Z2	X3	Y3	Z3	X4	Y4	Z4	X5	Y5	Z5	X6	Y6	Z6	X7	Y7	Z7	X8	Y8	Z8	X9	Y9	Z9	X10	Y10	Z10	X11	Y11	Z11	X12	Y12	Z12	X13	Y13	Z13	X14	Y14	Z14	X15	Y15	Z15	X16	Y16	Z16	X17	Y17	Z17	X18	Y18	Z18	X19	Y19	Z19	X20	Y20	Z20	X21	Y21	Z21	X22	Y22	Z22	X23	Y23	Z23	X24	Y24	Z24	X25	Y25	Z25	X26	Y26	Z26	X27	Y27	Z27	X28	Y28	Z28	X29	Y29	Z29	X30	Y30	Z30	X31	Y31	Z31	X32	Y32	Z32	X33	Y33	Z33	X34	Y34	Z34	X35	Y35	Z35	
876	4.3800	-0.227849	1.386265	-0.517800	-0.193359	1.352873	-0.686472	-0.163780	1.353261	-0.347632	-0.119546	1.329130	-0.525640	-0.101565	0.928256	-0.428342	-0.095817	0.938739	-0.613305	-0.155747	0.989961	-0.385766	-0.143960	0.992635	-0.651009	-0.245980	0.978369	-0.459058	-0.242769	0.979164	-0.572464	-0.251427	0.987918	-0.516678	-0.216373	0.725535	-0.363765	-0.200074	0.668248	-0.355731	-0.139168	0.683856	-0.340124	-0.147406	0.744619	-0.345189	-0.260674	0.311918	-0.343815	-0.277347	0.274743	-0.348096	-0.227225	0.250618	-0.334157	-0.205825	0.287616	-0.332938	-0.344854	0.112049	-0.388099	-0.207834	0.031009	-0.322220	-0.174482	0.035251	-0.397041	-0.153084	0.028767	-0.386517	-0.173892	0.739297	-0.702746	-0.160213	0.679506	-0.708153	-0.096723	0.686589	-0.695188	-0.102956	0.745665	-0.688748	-0.253936	0.304204	-0.735298	-0.266609	0.261608	-0.733645	-0.215679	0.244618	-0.726427	-0.196465	0.280551	-0.727580	-0.347873	0.133703	-0.685995	-0.219639	0.034869	-0.753786	-0.187812	0.037815	-0.685515	-0.164091	0.027307	-0.695514	
877	4.3850	-0.227743	1.381532	-0.517488	-0.193016	1.348279	-0.686183	-0.163542	1.348513	-0.347137	-0.119270	1.324293	-0.525327	-0.101857	0.923769	-0.428104	-0.096108	0.934153	-0.613195	-0.156139	0.985165	-0.385584	-0.144354	0.987938	-0.650874	-0.246512	0.973540	-0.458879	-0.243146	0.974196	-0.572447	-0.251496	0.983004	-0.516552	-0.215755	0.720456	-0.363243	-0.199131	0.663267	-0.355256	-0.138215	0.679201	-0.340048	-0.146777	0.739909	-0.345009	-0.260533	0.308668	-0.344094	-0.277718	0.271647	-0.348485	-0.227850	0.246947	-0.334587	-0.205960	0.283636	-0.333243	-0.347090	0.109225	-0.388080	-0.208654	0.030554	-0.321865	-0.175131	0.034964	-0.397254	-0.153680	0.028635	-0.386543	-0.173396	0.734190	-0.702431	-0.159471	0.674432	-0.707684	-0.096059	0.681781	-0.694461	-0.102549	0.740839	-0.688130	-0.253968	0.300608	-0.734752	-0.267217	0.258193	-0.732898	-0.216543	0.240558	-0.725373	-0.196852	0.276216	-0.726663	-0.350375	0.130156	-0.685116	-0.220130	0.034393	-0.754152	-0.188078	0.037591	-0.685540	-0.164046	0.027214	-0.695517	
878	4.3900	-0.227629	1.376655	-0.517177	-0.192804	1.343583	-0.685870	-0.163307	1.343646	-0.346655	-0.118947	1.319270	-0.525022	-0.102156	0.919160	-0.427860	-0.096366	0.929424	-0.613113	-0.156599	0.979839	-0.385126	-0.144745	0.983077	-0.650775	-0.247087	0.968527	-0.458717	-0.243530	0.969042	-0.572458	-0.251561	0.977891	-0.516448	-0.215226	0.715124	-0.362824	-0.198193	0.658052	-0.354917	-0.137328	0.674384	-0.339945	-0.146287	0.735032	-0.344811	-0.260295	0.305412	-0.344406	-0.277955	0.268542	-0.348867	-0.228350	0.243316	-0.334998	-0.206002	0.279686	-0.333580	-0.349153	0.106333	-0.388000	-0.209400	0.030113	-0.321533	-0.175686	0.034667	-0.397544	-0.154187	0.028513	-0.386628	-0.172920	0.728881	-0.702097	-0.158746	0.669160	-0.707206	-0.095408	0.676782	-0.693786	-0.102154	0.735826	-0.687554	-0.254148	0.296985	-0.734131	-0.267996	0.254758	-0.732117	-0.217591	0.236448	-0.724352	-0.197394	0.271823	-0.725754	-0.352943	0.126616	-0.684356	-0.220730	0.033936	-0.754477	-0.188549	0.037347	-0.685505	-0.164207	0.027135	-0.695548	
879	4.3950	-0.227511	1.371673	-0.516872	-0.192728	1.338815	-0.685537	-0.163082	1.338666	-0.346239	-0.118575	1.314126	-0.524726	-0.102457	0.914460	-0.427612	-0.096583	0.924572	-0.613057	-0.157167	0.974797	-0.384825	-0.145124	0.978071	-0.650716	-0.247700	0.963347	-0.458590	-0.244015	0.963813	-0.572424	-0.251620	0.972595	-0.516377	-0.214776	0.709566	-0.362516	-0.197249	0.652640	-0.354708	-0.136502	0.669433	-0.339826	-0.145929	0.730016	-0.344586	-0.259930	0.302113	-0.344724	-0.278014	0.265422	-0.349182	-0.228660	0.239714	-0.335361	-0.205895	0.275772	-0.333929	-0.351016	0.103354	-0.388000	-0.210051	0.029685	-0.321177	-0.176088	0.034361	-0.397888	-0.154535	0.028400	-0.386764	-0.172466	0.723397	-0.701740	-0.158036	0.663712	-0.706726	-0.094757	0.671623	-0.693188	-0.101768	0.730653	-0.687050	-0.254469	0.293360	-0.733433	-0.268907	0.251322	-0.731319	-0.218780	0.232323	-0.723389	-0.198086	0.267403	-0.724856	-0.355521	0.123094	-0.683705	-0.221500	0.033396	-0.754753	-0.189207	0.037062	-0.685404	-0.164557	0.027073	-0.695600	
880	4.4000	-0.227398	1.366619	-0.516575	-0.192744	1.334009	-0.685201	-0.162867	1.333602	-0.345887	-0.118126	1.308899	-0.524450	-0.102755	0.909691	-0.427354	-0.096750	0.919617	-0.613031	-0.157639	0.969527	-0.384640	-0.145486	0.972937	-0.650695	-0.248355	0.958018	-0.458494	-0.244526	0.958444	-0.572485	-0.251656	0.967102	-0.516329	-0.214377	0.703833	-0.362353	-0.196296	0.647083	-0.354628	-0.135739	0.664390	-0.339680	-0.145698	0.724901	-0.344334	-0.259408	0.298765	-0.345000	-0.277865	0.262264	-0.349421	-0.228766	0.236101	-0.335693	-0.205619	0.271869	-0.334281	-0.352671	0.100302	-0.388081	-0.210584	0.029285	-0.320825	-0.176325	0.034058	-0.398225	-0.154709	0.028294	-0.386912	-0.172034	0.717759	-0.701370	-0.157341	0.658123	-0.706249	-0.094106	0.666336	-0.692685	-0.101377	0.725352	-0.686642	-0.254929	0.289724	-0.732665	-0.269926	0.247886	-0.730519	-0.220067	0.228220	-0.722509	-0.198909	0.262998	-0.723992	-0.358064	0.119580	-0.683133	-0.222417	0.032753	-0.755009	-0.189989	0.036732	-0.685257	-0.165049	0.027017	-0.695671	
881	4.4050	-0.227301	1.361538	-0.516286	-0.192855	1.329202	-0.684871	-0.162666	1.328493	-0.345589	-0.117692	1.303608	-0.524184	-0.103046	0.904879	-0.427078	-0.096855	0.914578	-0.613033	-0.158392	0.964238	-0.384324	-0.145817	0.967694	-0.650714	-0.249062	0.952570	-0.458429	-0.245071	0.952960	-0.572652	-0.252122	0.961589	-0.516321	-0.214032	0.697987	-0.362318	-0.195351	0.641447	-0.354682	-0.135049	0.659315	-0.339507	-0.145592	0.719734	-0.344046	-0.258747	0.295366	-0.345270	-0.277547	0.259047	-0.349655	-0.228673	0.232466	-0.336051	-0.205192	0.267971	-0.334654	-0.354139	0.097273	-0.388328	-0.211017	0.028926	-0.320510	-0.176444	0.033766	-0.398541	-0.154765	0.028198	-0.387051	-0.171622	0.712007	-0.701001	-0.156668	0.652427	-0.705790	-0.093461	0.660944	-0.692278	-0.100984	0.719947	-0.686341	-0.255520	0.286065	-0.731864	-0.271017	0.244413	-0.729735	-0.221402	0.224147	-0.721717	-0.199819	0.258645	-0.723198	-0.360528	0.116069	-0.682620	-0.223397	0.032063	-0.755285	-0.190795	0.036379	-0.685094	-0.165594	0.026966	-0.695776	
882	4.4100	-0.227227	1.356474	-0.516012	-0.193060	1.324422	-0.684560	-0.162475	1.323380	-0.345334	-0.117245	1.298360	-0.523930	-0.103336	0.900073	-0.426783	-0.096898	0.909480	-0.613061	-0.158894	0.958840	-0.384166	-0.146105	0.962373	-0.650785	-0.249821	0.947041	-0.458393	-0.245663	0.947385	-0.572909	-0.252576	0.956005	-0.516364	-0.213747	0.692133	-0.362407	-0.194427	0.635829	-0.354863	-0.134447	0.654270	-0.339311	-0.145593	0.714585	-0.343716	-0.257959	0.291966	-0.345511	-0.277068	0.255837	-0.349873	-0.228422	0.228836	-0.336473	-0.204626	0.264079	-0.335070	-0.355441	0.094357	-0.388777	-0.211394	0.028615	-0.320253	-0.176502	0.033488	-0.398871	-0.154763	0.028112	-0.387185	-0.171231	0.706195	-0.700655	-0.156038	0.646673	-0.705357	-0.092842	0.655477	-0.691965	-0.100591	0.714473	-0.686146	-0.256219	0.282375	-0.731059	-0.272140	0.240890	-0.728988	-0.222730	0.220113	-0.721012	-0.200799	0.254336	-0.722459	-0.362873	0.112561	-0.682151	-0.224341	0.031398	-0.755596	-0.191552	0.036038	-0.684923	-0.166101	0.026918	-0.695904	
883	4.4150	-0.227183	1.351487	-0.515751	-0.193259	1.319713	-0.684294	-0.162305	1.318296	-0.345108	-0.116794	1.293175	-0.523694	-0.103618	0.895305	-0.426457	-0.096884	0.904360	-0.613110	-0.159817	0.953401	-0.383842	-0.146344	0.956991	-0.650909	-0.250623	0.941481	-0.458401	-0.246301	0.941785	-0.573267	-0.253074	0.950385	-0.516469	-0.213520	0.686402	-0.362629	-0.193554	0.630353	-0.355171	-0.133950	0.649348	-0.339112	-0.145693	0.709546	-0.343355	-0.257069	0.288579	-0.345775	-0.276450	0.252677	-0.350080	-0.228042	0.225207	-0.336987	-0.203946	0.260220	-0.335569	-0.356601	0.091618	-0.389443	-0.211742	0.028365	-0.320079	-0.176525	0.033223	-0.399231	-0.154733	0.028034	-0.387327	-0.170867	0.700412	-0.700353	-0.155480	0.640931	-0.704959	-0.092276	0.649989	-0.691734	-0.100209	0.708980	-0.686053	-0.256990	0.278628	-0.730283	-0.273239	0.237302	-0.728281	-0.224003	0.216112	-0.720358	-0.201804	0.250081	-0.721768	-0.365058	0.109075	-0.681720	-0.225173	0.030794	-0.755899	-0.192223	0.035707	-0.684734	-0.166536	0.026868	-0.696029	
884	4.4200	-0.227172	1.346632	-0.515505	-0.193442	1.315107	-0.684090	-0.162169	1.313289	-0.344872	-0.116346	1.288086	-0.523478	-0.103893	0.890604	-0.426082	-0.096829	0.899259	-0.613168	-0.160437	0.948025	-0.383625	-0.146528	0.951584	-0.651091	-0.251458	0.935955	-0.458450	-0.246989	0.936223	-0.573740	-0.253618	0.944780	-0.516635	-0.213350	0.680919	-0.362988	-0.192776	0.625106	-0.355607	-0.133575	0.644640	-0.338914	-0.145900	0.704723	-0.342984	-0.256087	0.285265	-0.346070	-0.275706	0.249594	-0.350309	-0.227573	0.221669	-0.337585	-0.203164	0.256437	-0.336167	-0.357602	0.089029	-0.390234	-0.212059	0.028184	-0.320007	-0.176510	0.032978	-0.399606	-0.154680	0.027963	-0.387471	-0.170542	0.694776	-0.700097	-0.155039	0.635320	-0.704591	-0.091807	0.644556	-0.691570	-0.099853	0.703551	-0.686042	-0.257781	0.274833	-0.729566	-0.274270	0.233656	-0.727620	-0.225173	0.212168	-0.719725	-0.202771	0.245909	-0.721106	-0.367055	0.105654	-0.681312	-0.225853	0.030268	-0.756164	-0.192793	0.035387	-0.684516	-0.166891	0.026816	-0.696130	
885	4.4250	-0.227193	1.341973	-0.515278	-0.193602	1.310647	-0.683958	-0.162080	1.308401	-0.344610	-0.115922	1.283149	-0.523279	-0.104150	0.886027	-0.425657	-0.096751	0.894236	-0.613224	-0.161404	0.942810	-0.383271	-0.146662	0.946200	-0.651333	-0.252310	0.930542	-0.458545	-0.247686	0.930738	-0.574220	-0.254197	0.939339	-0.516875	-0.213229	0.675799	-0.363477	-0.192109	0.620203	-0.356169	-0.133322	0.640233	-0.338734	-0.146189	0.700206	-0.342632	-0.255042	0.282075	-0.346415	-0.274874	0.246632	-0.350579	-0.226990	0.218256	-0.338298	-0.202298	0.252798	-0.336858	-0.358462	0.086609	-0.391161	-0.212346	0.028060	-0.320031	-0.176450	0.032760	-0.399978	-0.154599	0.027899	-0.387608	-0.170270	0.689430	-0.699872	-0.154743	0.629971	-0.704242	-0.091468	0.639294	-0.691455	-0.099541	0.698300	-0.686083	-0.258507	0.271056	-0.728917	-0.275163	0.230012	-0.727006	-0.226186	0.208305	-0.719087	-0.203633	0.241866	-0.720456	-0.368840	0.102359	-0.680922	-0.226386	0.029821	-0.756384	-0.193261	0.035093	-0.684261	-0.167168	0.026757	-0.696200	
